# AST/ASF file generated using VICON BodyLanguage
# -----------------------------------------------
:version 1.10
:name VICON
:units
  mass 1.0
  length 0.45
  angle deg
:documentation
   .ast/.asf automatically generated from VICON data using
   VICON BodyBuilder and BodyLanguage model FoxedUp or BRILLIANT.MOD
:root
   order TX TY TZ RX RY RZ
   axis XYZ
   position 0 0 0  
   orientation 0 0 0 
:bonedata
  begin
     id 1 
     name lhipjoint
     direction 0.78388 -0.462562 0.414208 
     length 3.01181 
     axis 0 0 0  XYZ
  end
  begin
     id 2 
     name lfemur
     direction 0.34202 -0.939693 0  
     length 6.04673  
     axis 0 0 20  XYZ
    dof rx ry rz
    limits (-160.0 20.0)
           (-70.0 70.0)
           (-60.0 70.0)
  end
  begin
     id 3 
     name ltibia
     direction 0.34202 -0.939693 0   
     length 7.211   
     axis 0 0 20   XYZ
    dof rx
    limits (-10.0 170.0)
  end
  begin
     id 4 
     name lfoot
     direction 0.121887 -0.334882 0.934344   
     length 2.13567   
     axis -90 7.62852e-016 20   XYZ
    dof rx rz
    limits (-45.0 90.0)
           (-70.0 20.0)
  end
  begin
     id 5 
     name ltoes
     direction 1.53555e-011 -4.2179e-011 1   
     length 1.05957   
     axis -90 7.62852e-016 20   XYZ
    dof rx
    limits (-90.0 20.0)
  end
  begin
     id 6 
     name rhipjoint
     direction -0.769387 -0.475875 0.426129   
     length 2.92756  
     axis 0 0 0  XYZ 
  end
  begin
     id 7 
     name rfemur
     direction -0.34202 -0.939693 0   
     length 6.35468   
     axis 0 0 -20   XYZ
    dof rx ry rz
    limits (-160.0 20.0)
           (-70.0 70.0)
           (-70.0 60.0)
  end
  begin
     id 8 
     name rtibia
     direction -0.34202 -0.939693 0   
     length 7.37886   
     axis 0 0 -20   XYZ
    dof rx
    limits (-10.0 170.0)
 end
 begin
     id 9 
     name rfoot
     direction -0.101763 -0.279592 0.954711   
     length 2.21478  
     axis -90 -7.62852e-016 -20   XYZ
    dof rx rz
    limits (-45.0 90.0)
           (-20.0 70.0)
  end
  begin
     id 10 
     name rtoes
     direction -1.53494e-011 -4.21851e-011 1   
     length 1.10506   
     axis -90 -7.62852e-016 -20   XYZ
    dof rx
    limits (-90.0 20.0)
  end
  begin
     id 11 
     name lowerback
     direction 0.00747405 0.999267 0.0375481   
     length 2.13259   
     axis 0 0 0   XYZ
    dof rx ry rz
    limits (-20.0 45.0)
           (-30.0 30.0)
           (-30.0 30.0)
  end
  begin
     id 12 
     name upperback
     direction 0.00661626 0.996177 0.0871029   
     length 2.10528   
     axis 0 0 0   XYZ
    dof rx ry rz
    limits (-20.0 45.0)
           (-30.0 30.0)
           (-30.0 30.0)
  end
  begin
     id 13 
     name thorax
     direction 0.00320659 0.997679 0.0680167   
     length 2.11338   
     axis 0 0 0   XYZ
    dof rx ry rz
    limits (-20.0 45.0)
           (-30.0 30.0)
           (-30.0 30.0)
  end
  begin
     id 14 
     name lowerneck
     direction 0.0374841 0.973033 0.227602   
     length 1.42765   
     axis 0 0 0   XYZ
    dof rx ry rz
    limits (-20.0 45.0)
           (-30.0 30.0)
           (-30.0 30.0)
  end
  begin
     id 15 
     name upperneck
     direction 0.00481585 0.989155 -0.146795   
     length 1.47593   
     axis 0 0 0   XYZ
    dof rx ry rz
    limits (-20.0 45.0)
           (-30.0 30.0)
           (-30.0 30.0)
  end
  begin
     id 16
     name head
     direction -0.00292522 0.997206 -0.0746423  
     length 1.48116  
     axis 0 0 0   XYZ
    dof rx ry rz
    limits (-20.0 45.0)
           (-30.0 30.0)
           (-30.0 30.0)
  end
  begin
     id 17 
     name lclavicle
     direction 0.951444 0.305606 0.0368784  
     length 3.01855  
     axis 0 0 0   XYZ
    dof ry rz
    limits (-20.0 10.0)
           (0.0 20.0)
  end
  begin
     id 18 
     name lhumerus
     direction 1 -4.48977e-011 2.61664e-027   
     length 5.52731   
     axis 180 -30 -90   XYZ
    dof rx ry rz
    limits (-60.0 90.0)
           (-90.0 90.0)
           (-90.0 90.0)
  end
  begin
     id 19
     name lradius
     direction 1 -4.48944e-011 8.22157e-027   
     length 3.11059   
     axis 180 -30 -90   XYZ
    dof rx
    limits (-10.0 170.0)
  end
  begin
     id 20
     name lwrist
     direction 1 -4.48976e-011 1.5779e-026   
     length 1.5553   
     axis -1.15221e-014 90 90   XYZ
    dof ry
    limits (-180.0 0.0)
 end
  begin
     id 21 
     name lhand
     direction 1 -4.49025e-011 3.1558e-026   
     length 0.419626   
     axis -2.01367e-014 90 90   XYZ
    dof rx rz
    limits (-90.0 90.0)
           (-45.0 45.0)
  end
  begin
     id 22 
     name lfingers
     direction 1 -4.4904e-011 6.31161e-026   
     length 0.338313   
     axis -4.02734e-014 90 90   XYZ
    dof rx
    limits (0.0 90.0)
  end
  begin
     id 23
     name lthumb
     direction 0.707107 -6.35004e-011 0.707107   
     length 0.485752   
     axis -90 45 2.85299e-015   XYZ
    dof rx rz
    limits (-45.0 45.0)
           (-45.0 45.0)
  end
  begin
     id 24 
     name rclavicle
     direction -0.968876 0.223791 0.105816   
     length 3.04177  
     axis 0 0 0   XYZ 
    dof ry rz
    limits (-10.0 20.0)
           (-20.0 0.0)
  end
  begin
     id 25 
     name rhumerus
     direction -1 -4.48962e-011 -1.01384e-027  
     length 5.25396   
     axis 180 30 90   XYZ
    dof rx ry rz
    limits (-90.0 60.0)
           (-90.0 90.0)
           (-90.0 90.0)
  end
  begin
     id 26 
     name rradius
     direction -1 -4.48955e-011 8.88542e-027   
     length 3.10567   
     axis 180 30 90   XYZ
    dof rx
    limits (-10.0 170.0)
  end
  begin
     id 27 
     name rwrist
     direction -1 -4.48994e-011 1.5779e-026   
     length 1.55283   
     axis -1.15221e-014 -90 -90   XYZ
    dof ry
    limits (-180.0 0.0)
  end
  begin
     id 28
     name rhand
     direction -1 -4.48891e-011 3.1558e-026   
     length 0.498676   
     axis -2.01367e-014 -90 -90   XYZ
    dof rx rz
    limits (-90.0 90.0)
           (-45.0 45.0)
  end
  begin
     id 29
     name rfingers
     direction -1 -4.48972e-011 6.31161e-026   
     length 0.402045   
     axis -4.02734e-014 -90 -90   XYZ
    dof rx
    limits (0.0 90.0)
  end
  begin
     id 30
     name rthumb
     direction -0.707107 -6.34849e-011 0.707107   
     length 0.577259   
     axis -90 -45 -2.85299e-015   XYZ
    dof rx rz
    limits (-45.0 45.0)
           (-45.0 45.0)
  end
:hierarchy
  begin
    root lhipjoint rhipjoint lowerback
    lhipjoint lfemur
    lfemur ltibia
    ltibia lfoot
    lfoot ltoes
    rhipjoint rfemur
    rfemur rtibia
    rtibia rfoot
    rfoot rtoes
    lowerback upperback
    upperback thorax
    thorax lowerneck lclavicle rclavicle
    lowerneck upperneck
    upperneck head
    lclavicle lhumerus
    lhumerus lradius
    lradius lwrist
    lwrist lhand lthumb
    lhand lfingers
    rclavicle rhumerus
    rhumerus rradius
    rradius rwrist
    rwrist rhand rthumb
    rhand rfingers
  end

#!OML:ASF H:\Pregnant\Project 1\Capture day 1\Session 1\femalepreg.ASF
:FULLY-SPECIFIED
:DEGREES
188
root -12.1846 15.8819 5.72284 -165.542 -4.93056 -179.044
lowerback -12.9777 0.195818 9.65206
upperback -4.11267 -1.88989 3.9079
thorax 2.79361 -1.26219 -1.61875
lowerneck -17.7383 -1.81969 2.87312
upperneck 24.0202 -1.63624 -3.93614
head 10.5771 -0.678826 -2.07224
rclavicle 1.85864e-014 -7.95139e-015
rhumerus -30.7498 -6.97728 -73.0561
rradius 24.9274
rwrist -1.47022
rhand -18.1241 -15.3784
rfingers 7.12502
rthumb 8.15056 -45.2012
lclavicle 1.85864e-014 -7.95139e-015
lhumerus -43.4112 -14.549 91.8261
lradius 29.1761
lwrist 32.5478
lhand -5.31906 -0.249537
lfingers 7.12502
lthumb 20.4868 28.6896
rfemur -32.4966 13.0834 25.6262
rtibia 38.4258
rfoot -13.9365 -14.6306
rtoes -13.0573
lfemur -42.836 -5.50573 -19.4313
ltibia 70.416
lfoot 5.12772 -8.88926
ltoes -29.5321
189
root -12.1839 15.8748 5.62007 -165.709 -4.83747 -178.955
lowerback -12.8425 0.20743 9.75406
upperback -4.03276 -1.86685 3.91269
thorax 2.803 -1.24425 -1.66463
lowerneck -17.7061 -1.82929 2.84966
upperneck 24.0041 -1.67728 -3.81231
head 10.5651 -0.685042 -2.02881
rclavicle -8.44835e-015 6.83819e-014
rhumerus -30.3654 -6.86459 -73.3383
rradius 24.9447
rwrist -1.58153
rhand -18.3757 -15.4628
rfingers 7.12502
rthumb 7.90772 -45.2949
lclavicle -8.44835e-015 6.83819e-014
lhumerus -43.2595 -14.4641 91.6157
lradius 29.5933
lwrist 32.6747
lhand -5.89362 -0.416091
lfingers 7.12502
lthumb 19.9346 28.5815
rfemur -31.8171 13.0583 25.9097
rtibia 38.3338
rfoot -14.2718 -14.664
rtoes -13.1989
lfemur -43.7506 -5.35135 -19.3327
ltibia 70.4065
lfoot 3.40358 -8.08732
ltoes -29.363
190
root -12.183 15.8671 5.51772 -165.857 -4.73539 -178.864
lowerback -12.71 0.218614 9.84847
upperback -3.96337 -1.84342 3.91289
thorax 2.80284 -1.22717 -1.71103
lowerneck -17.6908 -1.83506 2.83707
upperneck 24.016 -1.71122 -3.69889
head 10.5667 -0.687375 -1.99065
rclavicle 2.06239e-014 -1.43125e-014
rhumerus -29.9793 -6.73668 -73.6397
rradius 24.9544
rwrist -1.68535
rhand -18.5726 -15.511
rfingers 7.12502
rthumb 7.71772 -45.3502
lclavicle 2.06239e-014 -1.43125e-014
lhumerus -43.112 -14.364 91.3937
lradius 30.0322
lwrist 32.9998
lhand -6.58541 -0.586426
lfingers 7.12502
lthumb 19.2695 28.4789
rfemur -31.1644 13.0432 26.1855
rtibia 38.2433
rfoot -14.5947 -14.6957
rtoes -13.334
lfemur -44.6503 -5.2133 -19.2248
ltibia 70.2659
lfoot 1.84577 -7.29708
ltoes -28.9744
191
root -12.1822 15.8593 5.41557 -165.987 -4.61192 -178.793
lowerback -12.574 0.227987 9.91522
upperback -3.90786 -1.81699 3.90463
thorax 2.78703 -1.20977 -1.7504
lowerneck -17.6783 -1.83656 2.82819
upperneck 24.0504 -1.73621 -3.59063
head 10.5774 -0.684822 -1.95406
rclavicle 1.82385e-014 2.8625e-014
rhumerus -29.6031 -6.59403 -73.9521
rradius 24.9637
rwrist -1.77198
rhand -18.7154 -15.5012
rfingers 7.12502
rthumb 7.5799 -45.3453
lclavicle 1.82385e-014 2.8625e-014
lhumerus -42.9778 -14.2451 91.1657
lradius 30.4877
lwrist 33.4775
lhand -7.35234 -0.739121
lfingers 7.12502
lthumb 18.5319 28.3981
rfemur -30.5377 13.0346 26.4302
rtibia 38.1604
rfoot -14.9106 -14.7179
rtoes -13.4653
lfemur -45.5105 -5.09313 -19.1335
ltibia 69.9788
lfoot 0.473566 -6.47281
ltoes -28.5942
192
root -12.1815 15.8516 5.3133 -166.102 -4.46341 -178.744
lowerback -12.4403 0.238422 9.95066
upperback -3.85824 -1.78371 3.88609
thorax 2.7675 -1.18899 -1.78238
lowerneck -17.6856 -1.83646 2.82248
upperneck 24.1082 -1.75683 -3.48953
head 10.6006 -0.680225 -1.92059
rclavicle -1.37658e-014 -3.97569e-014
rhumerus -29.2308 -6.43345 -74.2783
rradius 24.9769
rwrist -1.85774
rhand -18.8062 -15.4717
rfingers 7.12502
rthumb 7.49226 -45.3191
lclavicle -1.37658e-014 -3.97569e-014
lhumerus -42.843 -14.1129 90.9295
lradius 30.9537
lwrist 34.0644
lhand -8.15809 -0.925333
lfingers 7.12502
lthumb 17.7567 28.2839
rfemur -29.9322 13.0346 26.6409
rtibia 38.0836
rfoot -15.2235 -14.7314
rtoes -13.5865
lfemur -46.3182 -4.9953 -19.0562
ltibia 69.5419
lfoot -0.716288 -5.592
ltoes -28.3257
193
root -12.181 15.844 5.21094 -166.204 -4.28961 -178.712
lowerback -12.3052 0.251081 9.96243
upperback -3.81654 -1.7432 3.86041
thorax 2.74 -1.16515 -1.80773
lowerneck -17.7034 -1.83531 2.81852
upperneck 24.1825 -1.77258 -3.39872
head 10.6319 -0.673881 -1.89078
rclavicle -7.55382e-015 1.59028e-014
rhumerus -28.8692 -6.25474 -74.6133
rradius 24.9926
rwrist -1.94249
rhand -18.8459 -15.4072
rfingers 7.12502
rthumb 7.45391 -45.2559
lclavicle -7.55382e-015 1.59028e-014
lhumerus -42.7163 -13.9753 90.6941
lradius 31.4343
lwrist 34.7442
lhand -8.97204 -1.14189
lfingers 7.12502
lthumb 16.9734 28.1365
rfemur -29.3429 13.0498 26.8233
rtibia 38.0082
rfoot -15.5272 -14.7405
rtoes -13.6898
lfemur -47.0673 -4.91506 -18.9872
ltibia 68.9571
lfoot -1.74932 -4.65703
ltoes -28.2518
194
root -12.1808 15.8369 5.10839 -166.293 -4.09318 -178.69
lowerback -12.1755 0.268546 9.95987
upperback -3.77627 -1.69443 3.82739
thorax 2.71502 -1.13697 -1.83198
lowerneck -17.7332 -1.83276 2.811
upperneck 24.2632 -1.78621 -3.30592
head 10.6682 -0.666615 -1.85961
rclavicle 2.99171e-014 -1.08139e-013
rhumerus -28.5089 -6.07147 -74.9555
rradius 25.0154
rwrist -2.02152
rhand -18.8209 -15.3446
rfingers 7.12502
rthumb 7.47807 -45.1924
lclavicle 2.99171e-014 -1.08139e-013
lhumerus -42.582 -13.8429 90.4584
lradius 31.9172
lwrist 35.5128
lhand -9.77841 -1.41891
lfingers 7.12502
lthumb 16.197 27.9244
rfemur -28.7636 13.0727 26.9866
rtibia 37.9246
rfoot -15.8254 -14.7369
rtoes -13.7868
lfemur -47.7586 -4.85192 -18.9173
ltibia 68.2308
lfoot -2.62932 -3.68778
ltoes -28.2506
195
root -12.1809 15.8304 5.00542 -166.372 -3.87467 -178.675
lowerback -12.0534 0.290687 9.9447
upperback -3.7367 -1.63821 3.78749
thorax 2.69427 -1.10477 -1.85575
lowerneck -17.7612 -1.82922 2.80169
upperneck 24.3381 -1.79855 -3.21308
head 10.7021 -0.659102 -1.82779
rclavicle 7.90169e-015 6.36111e-015
rhumerus -28.1567 -5.87655 -75.3055
rradius 25.0486
rwrist -2.10356
rhand -18.7152 -15.3652
rfingers 7.12502
rthumb 7.58006 -45.2093
lclavicle 7.90169e-015 6.36111e-015
lhumerus -42.4438 -13.7136 90.2228
lradius 32.4016
lwrist 36.3608
lhand -10.5853 -1.75325
lfingers 7.12502
lthumb 15.4199 27.6516
rfemur -28.1855 13.1009 27.1336
rtibia 37.8253
rfoot -16.1161 -14.7178
rtoes -13.8867
lfemur -48.3871 -4.80178 -18.8455
ltibia 67.3667
lfoot -3.37306 -2.71951
ltoes -28.2272
196
root -12.1812 15.8243 4.90214 -166.445 -3.63721 -178.652
lowerback -11.9332 0.318008 9.93231
upperback -3.6971 -1.57597 3.74597
thorax 2.67514 -1.06962 -1.8821
lowerneck -17.7921 -1.8252 2.79166
upperneck 24.4116 -1.8094 -3.12436
head 10.7361 -0.651589 -1.79711
rclavicle 1.36167e-014 -5.56597e-014
rhumerus -27.8163 -5.66802 -75.6641
rradius 25.1028
rwrist -2.18805
rhand -18.5684 -15.3857
rfingers 7.12502
rthumb 7.72177 -45.2248
lclavicle 1.36167e-014 -5.56597e-014
lhumerus -42.2967 -13.5829 89.9864
lradius 32.8788
lwrist 37.2792
lhand -11.3783 -2.14734
lfingers 7.12502
lthumb 14.6561 27.3147
rfemur -27.6017 13.1388 27.2818
rtibia 37.7029
rfoot -16.3901 -14.6869
rtoes -14.0008
lfemur -48.9567 -4.75735 -18.7546
ltibia 66.3749
lfoot -3.99509 -1.77689
ltoes -28.1625
197
root -12.1819 15.8187 4.79824 -166.51 -3.38092 -178.626
lowerback -11.8232 0.35101 9.91717
upperback -3.65744 -1.5072 3.70024
thorax 2.6623 -1.03098 -1.9108
lowerneck -17.8079 -1.82017 2.77827
upperneck 24.4675 -1.81914 -3.03373
head 10.7608 -0.644085 -1.76452
rclavicle -1.93318e-014 5.24792e-014
rhumerus -27.4927 -5.45756 -76.0272
rradius 25.176
rwrist -2.26881
rhand -18.3978 -15.3683
rfingers 7.12502
rthumb 7.88644 -45.2012
lclavicle -1.93318e-014 5.24792e-014
lhumerus -42.1373 -13.443 89.7431
lradius 33.3396
lwrist 38.2403
lhand -12.1382 -2.61693
lfingers 7.12502
lthumb 13.9238 26.8969
rfemur -27.0129 13.1793 27.4246
rtibia 37.5552
rfoot -16.654 -14.6363
rtoes -14.1309
lfemur -49.4653 -4.72147 -18.6491
ltibia 65.2557
lfoot -4.50022 -0.87463
ltoes -28.0289
198
root -12.183 15.8136 4.69364 -166.57 -3.10824 -178.59
lowerback -11.7224 0.391688 9.9104
upperback -3.61499 -1.43078 3.65151
thorax 2.65804 -0.988162 -1.94656
lowerneck -17.8259 -1.81518 2.76648
upperneck 24.5141 -1.82954 -2.94765
head 10.7825 -0.63781 -1.73384
rclavicle 3.62782e-015 3.97569e-014
rhumerus -27.1847 -5.23493 -76.3999
rradius 25.2787
rwrist -2.35999
rhand -18.2195 -15.383
rfingers 7.12502
rthumb 8.05854 -45.2094
lclavicle 3.62782e-015 3.97569e-014
lhumerus -41.9547 -13.2886 89.4889
lradius 33.7721
lwrist 39.2079
lhand -12.8407 -3.13993
lfingers 7.12502
lthumb 13.2468 26.4191
rfemur -26.4159 13.2269 27.5697
rtibia 37.3803
rfoot -16.9012 -14.571
rtoes -14.2815
lfemur -49.9134 -4.69346 -18.5175
ltibia 64.0165
lfoot -4.90989 -0.0282135
ltoes -27.8753
199
root -12.1848 15.8089 4.58813 -166.616 -2.81929 -178.543
lowerback -11.6368 0.440844 9.91198
upperback -3.57641 -1.34707 3.60219
thorax 2.65864 -0.942173 -1.98693
lowerneck -17.82 -1.81003 2.74208
upperneck 24.5362 -1.839 -2.85324
head 10.7909 -0.631847 -1.69721
rclavicle -5.11871e-015 -3.18055e-014
rhumerus -26.8972 -5.01193 -76.7711
rradius 25.3959
rwrist -2.44943
rhand -18.0394 -15.3803
rfingers 7.12502
rthumb 8.23235 -45.1999
lclavicle -5.11871e-015 -3.18055e-014
lhumerus -41.7621 -13.1122 89.2273
lradius 34.1802
lwrist 40.1541
lhand -13.4788 -3.70477
lfingers 7.12502
lthumb 12.6316 25.8933
rfemur -25.8205 13.2796 27.7153
rtibia 37.1806
rfoot -17.13 -14.4871
rtoes -14.467
lfemur -50.3094 -4.67584 -18.3549
ltibia 62.6602
lfoot -5.23917 0.754602
ltoes -27.7434
200
root -12.1873 15.8044 4.48196 -166.65 -2.51973 -178.483
lowerback -11.5636 0.499914 9.92994
upperback -3.53717 -1.25391 3.54689
thorax 2.66738 -0.891258 -2.04164
lowerneck -17.8209 -1.80657 2.72317
upperneck 24.551 -1.8533 -2.76142
head 10.7976 -0.628455 -1.66317
rclavicle -8.29926e-015 3.65764e-014
rhumerus -26.6197 -4.80946 -77.1396
rradius 25.525
rwrist -2.53512
rhand -17.8402 -15.3616
rfingers 7.12502
rthumb 8.42455 -45.1736
lclavicle -8.29926e-015 3.65764e-014
lhumerus -41.5535 -12.9274 88.9514
lradius 34.5739
lwrist 41.0423
lhand -14.0369 -4.26429
lfingers 7.12502
lthumb 12.0935 25.3662
rfemur -25.2262 13.3379 27.8634
rtibia 36.9579
rfoot -17.3421 -14.3891
rtoes -14.6835
lfemur -50.6578 -4.67336 -18.1544
ltibia 61.1971
lfoot -5.51931 1.46194
ltoes -27.6036
201
root -12.1905 15.8 4.37503 -166.67 -2.2117 -178.413
lowerback -11.5035 0.565632 9.9592
upperback -3.50235 -1.1555 3.48879
thorax 2.67916 -0.838146 -2.10508
lowerneck -17.8125 -1.80473 2.70377
upperneck 24.5524 -1.87036 -2.67015
head 10.7975 -0.626869 -1.62935
rclavicle -6.85807e-015 3.49861e-014
rhumerus -26.3633 -4.62543 -77.5007
rradius 25.6615
rwrist -2.60413
rhand -17.627 -15.2995
rfingers 7.12502
rthumb 8.63027 -45.1031
lclavicle -6.85807e-015 3.49861e-014
lhumerus -41.3423 -12.7265 88.6657
lradius 34.9581
lwrist 41.8495
lhand -14.523 -4.81393
lfingers 7.12502
lthumb 11.6248 24.8436
rfemur -24.636 13.4042 28.0106
rtibia 36.7159
rfoot -17.5381 -14.2816
rtoes -14.9188
lfemur -50.9602 -4.68556 -17.9177
ltibia 59.633
lfoot -5.76542 2.07356
ltoes -27.4771
202
root -12.1945 15.7956 4.26741 -166.678 -1.89691 -178.333
lowerback -11.4581 0.636336 9.99701
upperback -3.46952 -1.05401 3.42947
thorax 2.69739 -0.783613 -2.17435
lowerneck -17.8065 -1.80341 2.68859
upperneck 24.5494 -1.88816 -2.58606
head 10.7961 -0.626419 -1.59894
rclavicle 4.91992e-015 3.97569e-014
rhumerus -26.1174 -4.45542 -77.8543
rradius 25.7995
rwrist -2.66047
rhand -17.4077 -15.2039
rfingers 7.12502
rthumb 8.84191 -44.9986
lclavicle 4.91992e-015 3.97569e-014
lhumerus -41.1169 -12.4978 88.3673
lradius 35.3185
lwrist 42.5538
lhand -14.9477 -5.31811
lfingers 7.12502
lthumb 11.2152 24.3621
rfemur -24.0497 13.4758 28.1574
rtibia 36.4568
rfoot -17.7186 -14.1666
rtoes -15.1791
lfemur -51.2178 -4.71543 -17.6426
ltibia 57.9751
lfoot -5.98698 2.57468
ltoes -27.3391
